<?xml version="1.0" encoding="UTF-8" standalone="no"?>
<!-- Created with Inkscape (http://www.inkscape.org/) -->

<svg
   xmlns:dc="http://purl.org/dc/elements/1.1/"
   xmlns:cc="http://creativecommons.org/ns#"
   xmlns:rdf="http://www.w3.org/1999/02/22-rdf-syntax-ns#"
   xmlns:svg="http://www.w3.org/2000/svg"
   xmlns="http://www.w3.org/2000/svg"
   xmlns:sodipodi="http://sodipodi.sourceforge.net/DTD/sodipodi-0.dtd"
   xmlns:inkscape="http://www.inkscape.org/namespaces/inkscape"
   width="215.32822mm"
   height="164.44855mm"
   viewBox="0 0 215.32822 164.44855"
   version="1.1"
   id="svg8"
   sodipodi:docname="rviewline.svg"
   inkscape:version="0.92.3 (2405546, 2018-03-11)">
  <defs
     id="defs2" />
  <sodipodi:namedview
     id="base"
     pagecolor="#ffffff"
     bordercolor="#666666"
     borderopacity="1.0"
     inkscape:pageopacity="0.0"
     inkscape:pageshadow="2"
     inkscape:zoom="0.98994949"
     inkscape:cx="443.48121"
     inkscape:cy="291.51408"
     inkscape:document-units="mm"
     inkscape:current-layer="layer3"
     showgrid="false"
     inkscape:window-width="1680"
     inkscape:window-height="986"
     inkscape:window-x="1680"
     inkscape:window-y="27"
     inkscape:window-maximized="1">
    <inkscape:grid
       type="xygrid"
       id="grid3999"
       originx="27.783117"
       originy="-95.348179" />
  </sodipodi:namedview>
  <metadata
     id="metadata5">
    <rdf:RDF>
      <cc:Work
         rdf:about="">
        <dc:format>image/svg+xml</dc:format>
        <dc:type
           rdf:resource="http://purl.org/dc/dcmitype/StillImage" />
      </cc:Work>
    </rdf:RDF>
  </metadata>
  <g
     inkscape:groupmode="layer"
     id="layer3"
     inkscape:label="Layer 2"
     style="display:inline"
     transform="translate(27.783117,-37.203265)">
    <path
       style="fill:none;stroke:#000000;stroke-width:0.26444995px;stroke-linecap:butt;stroke-linejoin:miter;stroke-opacity:1"
       d="m 90.047739,151.75032 -7.069263,-21.56827 -6.171496,-21.91811 -3.030445,-14.994703 -1.72763,-15.224201 -0.568228,-7.568313 0.07688,-1.738933 0.766951,-4.352719 1.938502,-5.325929 2.529668,-5.238352 3.580737,-5.80692 3.62434,-4.472626 5.616781,-4.056753 3.55825,-1.585334 1.488941,-0.262276 1.14951,-0.01078 2.14574,0.19716 1.434092,0.514226 1.532541,1.072015 1.09467,0.765725 2.72566,2.395531"
       id="path102"
       inkscape:connector-curvature="0" />
    <path
       style="display:inline;fill:none;stroke:#000000;stroke-width:0.26444995px;stroke-linecap:butt;stroke-linejoin:miter;stroke-opacity:1"
       d="m 119.44015,151.75032 7.06926,-21.56827 6.17149,-21.91811 3.03045,-14.994702 1.72763,-15.224202 0.56823,-7.568312 -0.0769,-1.738933 -0.76695,-4.35272 -1.93851,-5.325929 -2.52966,-5.238352 -3.58074,-5.80692 -3.62434,-4.472626 -5.61678,-4.056753 -3.55825,-1.585334 -1.48894,-0.262276 -1.14951,-0.01078 -2.14574,0.19716 -1.43409,0.514226 -1.53255,1.072015 -1.09467,0.765725 -2.72566,2.395531"
       id="path102-6"
       inkscape:connector-curvature="0" />
    <path
       style="display:inline;fill:none;stroke:#000000;stroke-width:0.26444995px;stroke-linecap:butt;stroke-linejoin:miter;stroke-opacity:1"
       d="m 139.45312,87.395241 -7.06926,21.568269 -6.1715,21.9181 -3.03044,14.99471 -1.72763,15.2242 -0.56823,7.56831 0.0769,1.73894 0.76695,4.35272 1.9385,5.32592 2.52967,5.23836 3.58074,5.80692 3.62434,4.47263 5.61678,4.05674 3.55825,1.58535 1.48894,0.26227 1.14951,0.0108 2.14574,-0.19716 1.43409,-0.51423 1.53254,-1.07201 1.09467,-0.76573 2.72566,-2.39553"
       id="path102-7"
       inkscape:connector-curvature="0" />
    <path
       style="display:inline;fill:none;stroke:#000000;stroke-width:0.26444995px;stroke-linecap:butt;stroke-linejoin:miter;stroke-opacity:1"
       d="m 168.84553,87.395241 7.06926,21.568269 6.17149,21.9181 3.03045,14.99471 1.72763,15.2242 0.56823,7.56831 -0.0769,1.73894 -0.76695,4.35272 -1.93851,5.32592 -2.52966,5.23836 -3.58074,5.80692 -3.62434,4.47263 -5.61678,4.05674 -3.55825,1.58535 -1.48894,0.26227 -1.14951,0.0108 -2.14574,-0.19717 -1.43409,-0.51423 -1.53255,-1.07201 -1.09467,-0.76573 -2.72566,-2.39553"
       id="path102-6-5"
       inkscape:connector-curvature="0" />
    <path
       style="display:inline;fill:none;stroke:#000000;stroke-width:0.26444995px;stroke-linecap:butt;stroke-linejoin:miter;stroke-opacity:1"
       d="m 40.361316,87.339018 -7.06926,21.568262 -6.1715,21.91811 -3.03044,14.9947 -1.727628,15.2242 -0.56823,7.56832 0.0769,1.73893 0.76695,4.35272 1.938498,5.32593 2.52967,5.23835 3.58074,5.80693 3.62434,4.47262 5.61678,4.05675 3.55825,1.58534 1.48894,0.26228 1.14951,0.0108 2.14574,-0.19716 1.43409,-0.51424 1.53254,-1.072 1.09467,-0.76573 2.72566,-2.39553"
       id="path102-7-3"
       inkscape:connector-curvature="0" />
    <path
       style="display:inline;fill:none;stroke:#000000;stroke-width:0.26444995px;stroke-linecap:butt;stroke-linejoin:miter;stroke-opacity:1"
       d="m 69.753726,87.339018 7.06926,21.568262 6.17149,21.91811 3.03045,14.9947 1.72763,15.2242 0.56823,7.56832 -0.0769,1.73893 -0.76695,4.35272 -1.93851,5.32593 -2.52966,5.23835 -3.58074,5.80693 -3.62434,4.47262 -5.61678,4.05675 -3.55825,1.58534 -1.48894,0.26228 -1.14951,0.0108 -2.14574,-0.19717 -1.43409,-0.51424 -1.53255,-1.072 -1.09467,-0.76573 -2.72566,-2.39553"
       id="path102-6-5-5"
       inkscape:connector-curvature="0" />
    <path
       style="display:inline;fill:none;stroke:#000000;stroke-width:0.26444995px;stroke-linecap:butt;stroke-linejoin:miter;stroke-opacity:1"
       d="m -9.0835433,151.6253 -7.0692627,-21.56826 -6.171497,-21.91811 -3.030445,-14.994708 -1.72763,-15.224202 -0.568228,-7.568312 0.07688,-1.738933 0.766951,-4.35272 1.938502,-5.325929 2.529668,-5.238352 3.580737,-5.80692 3.624341,-4.472626 5.6167811,-4.056753 3.5582496,-1.585334 1.488941,-0.262276 1.14951,-0.01078 2.145739,0.19716 1.43409196,0.514226 1.53254304,1.072015 1.094669,0.765725 2.72566,2.395531"
       id="path102-62"
       inkscape:connector-curvature="0" />
    <path
       style="display:inline;fill:none;stroke:#000000;stroke-width:0.26444995px;stroke-linecap:butt;stroke-linejoin:miter;stroke-opacity:1"
       d="m 20.308863,151.6253 7.06926,-21.56826 6.17149,-21.91811 3.03046,-14.994708 1.72762,-15.224202 0.56823,-7.568312 -0.0769,-1.738933 -0.76695,-4.35272 -1.93851,-5.325929 -2.52966,-5.238352 -3.58074,-5.80692 -3.62434,-4.472626 -5.61678,-4.056753 -3.558246,-1.585334 -1.48894,-0.262276 -1.149509,-0.01078 -2.145742,0.19716 -1.434089,0.514226 -1.5325513,1.072015 -1.094669,0.765725 -2.725661,2.395531"
       id="path102-6-9"
       inkscape:connector-curvature="0" />
    <rect
       id="rect3913"
       width="66.817383"
       height="0.26726952"
       x="29.399649"
       y="123.2748"
       style="stroke-width:0.26458332" />
  </g>
</svg>
